<svg width="140" height="140" viewBox="0 0 140 140" fill="none" xmlns="http://www.w3.org/2000/svg">
<g filter="url(#filter0_f)">
<circle cx="70" cy="70" r="66" fill="black"/>
</g>
<path d="M79.6719 52.1406C79.6198 51.9844 79.776 51.5938 80.1406 50.9688C80.5052 50.2917 80.8958 49.4844 81.3125 48.5469C81.7812 47.5573 82.224 46.4635 82.6406 45.2656C83.1094 44.0156 83.4219 42.7396 83.5781 41.4375C83.7865 40.1354 83.7865 38.8333 83.5781 37.5312C83.3698 36.2292 82.8229 34.9792 81.9375 33.7812C81.4167 33.1562 80.6354 32.8177 79.5938 32.7656C78.6042 32.6615 77.4583 32.8177 76.1562 33.2344C74.9062 33.599 73.5781 34.1979 72.1719 35.0312C70.8177 35.8125 69.5677 36.75 68.4219 37.8438C67.276 38.8854 66.2865 40.0573 65.4531 41.3594C64.6719 42.6615 64.2292 43.9896 64.125 45.3438C64.0208 46.4375 64.0469 47.4531 64.2031 48.3906C64.4115 49.3281 64.6719 50.1875 64.9844 50.9688C65.2969 51.75 65.6354 52.4792 66 53.1562C66.3646 53.8333 66.7031 54.4323 67.0156 54.9531C67.4323 55.6823 68.0833 56.4896 68.9688 57.375C69.8542 58.2604 70.8177 59.276 71.8594 60.4219C72.901 61.5156 73.9427 62.7656 74.9844 64.1719C76.026 65.5781 76.9375 67.1667 77.7188 68.9375C78.5 70.7083 79.0469 72.6875 79.3594 74.875C79.6719 77.0625 79.6458 79.4844 79.2812 82.1406C78.7083 85.9948 77.7969 89.1979 76.5469 91.75C75.2969 94.3542 73.9167 96.4375 72.4062 98C70.9479 99.5625 69.4635 100.682 67.9531 101.359C66.4427 102.089 65.1927 102.557 64.2031 102.766C63.4219 102.922 62.4844 103.052 61.3906 103.156C60.349 103.312 59.2292 103.286 58.0312 103.078C56.8854 102.922 55.7135 102.557 54.5156 101.984C53.3177 101.464 52.25 100.63 51.3125 99.4844C50.2188 98.1823 49.3594 96.776 48.7344 95.2656C48.1615 93.9635 47.7448 92.4531 47.4844 90.7344C47.1719 89.0677 47.3021 87.3229 47.875 85.5C48.2917 85.0312 48.7344 84.6146 49.2031 84.25C49.6719 83.8854 50.1406 83.5729 50.6094 83.3125C51.1302 83 51.6771 82.7135 52.25 82.4531C52.9271 82.2448 53.6042 82.0625 54.2812 81.9062C54.8542 81.8021 55.4531 81.75 56.0781 81.75C56.7552 81.6979 57.3802 81.776 57.9531 81.9844C57.1719 82.8698 56.625 83.7031 56.3125 84.4844C56.1042 84.901 55.9479 85.2656 55.8438 85.5781C55.6354 86.5677 55.5573 87.7396 55.6094 89.0938C55.7135 90.5 56 91.8281 56.4688 93.0781C56.9896 94.3802 57.7188 95.474 58.6562 96.3594C59.5938 97.2969 60.8438 97.7917 62.4062 97.8438C66.2083 97.9479 69.4375 94.9792 72.0938 88.9375C72.9792 87.0625 73.4219 85.1615 73.4219 83.2344C73.474 81.3073 73.2396 79.4583 72.7188 77.6875C72.25 75.9167 71.599 74.276 70.7656 72.7656C69.9844 71.2031 69.1771 69.875 68.3438 68.7812C67.5104 67.6875 66.4948 66.5156 65.2969 65.2656C64.151 63.9635 63.0052 62.5573 61.8594 61.0469C60.7135 59.5365 59.6719 57.8958 58.7344 56.125C57.849 54.3542 57.25 52.4271 56.9375 50.3438C56.5208 47.4271 56.7812 44.7708 57.7188 42.375C58.7083 39.9271 60.0104 37.7917 61.625 35.9688C63.2917 34.1458 65.0885 32.6615 67.0156 31.5156C68.9948 30.3698 70.7396 29.6406 72.25 29.3281C80.6354 27.6615 86.1302 29.0677 88.7344 33.5469C89.8281 35.2656 90.4271 37.0885 90.5312 39.0156C90.6354 40.9427 90.5052 42.7396 90.1406 44.4062C89.8281 46.0208 89.4115 47.401 88.8906 48.5469C88.4219 49.6406 88.1094 50.2396 87.9531 50.3438C87.6406 50.6562 87.1458 50.9948 86.4688 51.3594C85.7917 51.724 84.6979 52.0625 83.1875 52.375C82.7708 52.4792 82.3542 52.5312 81.9375 52.5312C81.5729 52.5312 81.1823 52.5052 80.7656 52.4531C80.349 52.401 79.9844 52.2969 79.6719 52.1406Z" fill="white"/>
<defs>
<filter id="filter0_f" x="0" y="0" width="140" height="140" filterUnits="userSpaceOnUse" color-interpolation-filters="sRGB">
<feFlood flood-opacity="0" result="BackgroundImageFix"/>
<feBlend mode="normal" in="SourceGraphic" in2="BackgroundImageFix" result="shape"/>
<feGaussianBlur stdDeviation="2" result="effect1_foregroundBlur"/>
</filter>
</defs>
</svg>
